<svg width="17" height="20" viewBox="0 0 17 20" fill="none" xmlns="http://www.w3.org/2000/svg">
<path d="M15.3889 9.35996L1.8911 1.11102C1.77741 1.04154 1.64726 1.0036 1.51404 1.00111C1.38083 0.998613 1.24935 1.03165 1.13314 1.09683C1.01692 1.162 0.920173 1.25696 0.852834 1.37193C0.785495 1.4869 0.75 1.61774 0.75 1.75098V18.2488C0.75 18.3821 0.785495 18.5129 0.852834 18.6279C0.920173 18.7429 1.01692 18.8378 1.13314 18.903C1.24935 18.9682 1.38083 19.0012 1.51404 18.9987C1.64726 18.9962 1.77741 18.9583 1.8911 18.8888L15.3889 10.6399C15.4985 10.5729 15.5891 10.4788 15.652 10.3668C15.7148 10.2547 15.7478 10.1284 15.7478 9.99991C15.7478 9.87143 15.7148 9.74511 15.652 9.63305C15.5891 9.52099 15.4985 9.42695 15.3889 9.35996Z" stroke="white" stroke-width="1.5" stroke-linecap="round" stroke-linejoin="round"/>
</svg>
