<svg width="128" height="128" viewBox="0 0 128 128" fill="none" xmlns="http://www.w3.org/2000/svg">
<g filter="url(#filter0_d_308_11687)">
<path d="M93.2009 47.9741L100.251 47.5248C100.263 47.5239 100.276 47.5229 100.289 47.522C105.313 47.0957 109.823 44.4487 112.663 40.2577L118.237 32.0341C123.088 24.8747 124.968 16.2275 123.528 7.68623C123.245 6.00872 122.392 4.46288 121.126 3.33502C119.86 2.20625 118.232 1.53966 116.542 1.45864C107.935 1.04433 99.6261 3.95833 93.1405 9.66021L85.6899 16.211C81.8932 19.5485 79.8205 24.3683 80.0017 29.4368C80.0026 29.4487 80.0026 29.4616 80.0036 29.4745L80.4055 36.5666C80.562 39.3315 79.554 42.0595 77.6452 44.0464L19.4376 104.181C17.8793 105.815 17.0746 108.057 17.1725 110.494C17.2806 113.177 18.5046 115.812 20.4474 117.544C22.2025 119.108 24.6149 119.999 27.0264 119.999C27.2846 119.999 27.5428 119.989 27.8 119.968C30.2179 119.774 32.3356 118.702 33.7693 116.94L86.144 51.6311C87.8808 49.4822 90.4534 48.149 93.2009 47.9741V47.9741ZM83.348 49.3551L30.9778 114.658C30.1777 115.642 28.9472 116.247 27.5135 116.362C25.8078 116.5 24.0592 115.929 22.8342 114.837C21.6092 113.744 20.8365 112.067 20.7678 110.348C20.7092 108.903 21.1588 107.602 22.0249 106.694L80.2279 46.5645C82.8371 43.8494 84.2104 40.1307 83.998 36.3613L83.5961 29.2876C83.4597 25.3203 85.0848 21.5482 88.0575 18.9344L95.5081 12.3836C101.291 7.30046 108.701 4.70502 116.371 5.07146C117.245 5.11381 118.085 5.45815 118.74 6.04187C119.394 6.62467 119.835 7.42384 119.981 8.29021C121.265 15.9053 119.589 23.6134 115.264 29.9956L109.691 38.2202C107.467 41.5016 103.937 43.5759 100.004 43.9156L92.973 44.3631C89.2266 44.6025 85.7201 46.4199 83.348 49.3551Z" fill="#FF9F0D"/>
<path d="M120.677 103.724L81.6489 67.9762C80.9147 67.3031 79.7776 67.3565 79.1074 68.0949C78.4391 68.8333 78.4922 69.9778 79.2264 70.6508L118.244 106.39C119.173 107.253 119.699 108.524 119.728 109.97C119.761 111.69 119.09 113.411 117.932 114.575C116.775 115.739 115.067 116.416 113.353 116.381C111.915 116.352 110.651 115.823 109.802 114.899L75.0251 76.5027C74.3558 75.7634 73.2178 75.7109 72.4836 76.383C71.7493 77.0561 71.6962 78.2005 72.3655 78.9389L107.151 117.345C108.68 119.007 110.857 119.95 113.282 119.998C113.345 119.999 113.408 120 113.471 120C116.077 120 118.684 118.937 120.476 117.134C122.312 115.287 123.377 112.583 123.324 109.899C123.276 107.46 122.34 105.271 120.677 103.724V103.724Z" fill="#FF9F0D"/>
<path d="M25.7052 47.6314C28.6825 50.3898 32.5506 51.9624 36.5972 52.06C36.6101 52.0609 36.6229 52.0609 36.6348 52.0609L43.699 52.083C46.4529 52.0913 49.0997 53.267 50.9573 55.3026L54.0692 58.7378C54.4244 59.13 54.9105 59.3288 55.3994 59.3288C55.8316 59.3288 56.2655 59.1732 56.6098 58.8574C57.3449 58.1844 57.398 57.04 56.7288 56.3016L53.6123 52.8619C51.0745 50.0795 47.4655 48.4775 43.7109 48.4646L36.6659 48.4426C33.5357 48.3625 30.5428 47.1573 28.2238 45.0461L7.75169 20.5722C7.54295 20.3218 7.55852 19.959 7.78832 19.7279C7.94579 19.5687 8.13072 19.5456 8.22685 19.5456C8.32298 19.5456 8.50792 19.5687 8.66631 19.7279L27.301 38.4687C29.143 40.3211 32.1404 40.3211 33.9825 38.4677L36.1724 36.2664V36.2654L40.0607 32.3553C40.0607 32.3553 40.0616 32.3553 40.0616 32.3543L40.0625 32.3534L42.2515 30.152C44.0936 28.2996 44.0936 25.2853 42.2515 23.4328L23.6169 4.693C23.3752 4.44994 23.3752 4.05312 23.6169 3.81006C23.8467 3.57896 24.2074 3.56331 24.4564 3.77323L48.793 24.3618C50.8932 26.693 52.0916 29.7037 52.1713 32.8506L52.1923 39.9363C52.2052 43.7111 53.7991 47.3405 56.5695 49.8982L59.9038 52.9521C60.639 53.6251 61.7761 53.5717 62.4453 52.8333C63.1137 52.094 63.0606 50.9505 62.3263 50.2775L58.9975 47.2282C56.9677 45.3555 55.7995 42.6928 55.7904 39.9243L55.7684 32.8202C55.7684 32.8073 55.7684 32.7944 55.7675 32.7815C55.6704 28.7121 54.1067 24.8221 51.3638 21.828C51.3125 21.7719 51.2576 21.7185 51.199 21.6688L26.7718 1.0047C25.0836 -0.424216 22.6336 -0.317415 21.0735 1.25145C19.4283 2.90594 19.4283 5.59712 21.0735 7.25069L39.7082 25.9914C40.1477 26.4334 40.1477 27.1524 39.7082 27.5944L38.7899 28.5169L18.0212 7.63186C17.319 6.92477 16.18 6.92477 15.4778 7.63186C14.7756 8.33803 14.7756 9.48337 15.4778 10.1895L36.2466 31.0755L34.9008 32.428L14.132 11.543C13.4298 10.8368 12.2909 10.8368 11.5887 11.543C10.8855 12.2491 10.8855 13.3945 11.5887 14.1007L32.3565 34.9866L31.4391 35.9101C30.9997 36.352 30.2847 36.352 29.8452 35.9101L11.2096 17.1703C10.4131 16.3692 9.35387 15.9273 8.22685 15.9273C7.09984 15.9273 6.04057 16.3692 5.24406 17.1703C3.684 18.7391 3.57872 21.2029 4.9987 22.9016L25.5477 47.4657C25.5963 47.5246 25.6494 47.5799 25.7052 47.6314Z" fill="#FF9F0D"/>
</g>
<defs>
<filter id="filter0_d_308_11687" x="0" y="0" width="128" height="128" filterUnits="userSpaceOnUse" color-interpolation-filters="sRGB">
<feFlood flood-opacity="0" result="BackgroundImageFix"/>
<feColorMatrix in="SourceAlpha" type="matrix" values="0 0 0 0 0 0 0 0 0 0 0 0 0 0 0 0 0 0 127 0" result="hardAlpha"/>
<feOffset dy="4"/>
<feGaussianBlur stdDeviation="2"/>
<feComposite in2="hardAlpha" operator="out"/>
<feColorMatrix type="matrix" values="0 0 0 0 0 0 0 0 0 0 0 0 0 0 0 0 0 0 0.25 0"/>
<feBlend mode="normal" in2="BackgroundImageFix" result="effect1_dropShadow_308_11687"/>
<feBlend mode="normal" in="SourceGraphic" in2="effect1_dropShadow_308_11687" result="shape"/>
</filter>
</defs>
</svg>
