<svg width="153" height="25" viewBox="0 0 153 25" fill="none" xmlns="http://www.w3.org/2000/svg">
<path d="M23.9951 9.43826L16.6184 8.31183L13.313 1.26122C13.2411 1.14054 13.1412 1.04105 13.0227 0.972088C12.9042 0.903123 12.7709 0.866943 12.6355 0.866943C12.5 0.866943 12.3668 0.903123 12.2483 0.972088C12.1298 1.04105 12.0299 1.14054 11.958 1.26122L8.65263 8.32146L1.27898 9.43826C1.1454 9.45204 1.01834 9.50563 0.912732 9.59273C0.807122 9.67983 0.727352 9.79683 0.682798 9.92996C0.638244 10.0631 0.630757 10.2068 0.661218 10.3443C0.691679 10.4817 0.758822 10.6072 0.854754 10.7059L6.21103 16.2097L4.94444 23.9823C4.92823 24.1256 4.94999 24.2708 5.00731 24.4019C5.06462 24.533 5.15528 24.6449 5.26926 24.7253C5.38324 24.8056 5.51612 24.8513 5.65322 24.8572C5.79033 24.8632 5.92633 24.8292 6.04622 24.759L12.6355 21.1133L19.2217 24.7622C19.3416 24.8324 19.4776 24.8664 19.6147 24.8604C19.7518 24.8545 19.8847 24.8088 19.9987 24.7285C20.1127 24.6481 20.2033 24.5362 20.2606 24.4051C20.318 24.274 20.3397 24.1288 20.3235 23.9855L19.06 16.2097L24.4162 10.7059C24.5122 10.6072 24.5793 10.4817 24.6098 10.3443C24.6402 10.2068 24.6328 10.0631 24.5882 9.92996C24.5436 9.79683 24.4639 9.67983 24.3583 9.59273C24.2527 9.50563 24.1256 9.45204 23.992 9.43826H23.9951Z" fill="#FF9F0D"/>
<path d="M55.9755 9.43826L48.5988 8.31183L45.2935 1.26122C45.2216 1.14054 45.1217 1.04105 45.0032 0.972088C44.8846 0.903123 44.7514 0.866943 44.616 0.866943C44.4805 0.866943 44.3473 0.903123 44.2288 0.972088C44.1103 1.04105 44.0104 1.14054 43.9384 1.26122L40.6331 8.32146L33.2595 9.43826C33.1259 9.45204 32.9988 9.50563 32.8932 9.59273C32.7876 9.67983 32.7078 9.79683 32.6633 9.92996C32.6187 10.0631 32.6112 10.2068 32.6417 10.3443C32.6721 10.4817 32.7393 10.6072 32.8352 10.7059L38.1915 16.2097L36.9249 23.9823C36.9087 24.1256 36.9305 24.2708 36.9878 24.4019C37.0451 24.533 37.1357 24.6449 37.2497 24.7253C37.3637 24.8056 37.4966 24.8513 37.6337 24.8572C37.7708 24.8632 37.9068 24.8292 38.0267 24.759L44.616 21.1133L51.2022 24.7622C51.3221 24.8324 51.4581 24.8664 51.5952 24.8604C51.7323 24.8545 51.8652 24.8088 51.9792 24.7285C52.0931 24.6481 52.1838 24.5362 52.2411 24.4051C52.2984 24.274 52.3202 24.1288 52.304 23.9855L51.0404 16.2097L56.3967 10.7059C56.4926 10.6072 56.5598 10.4817 56.5902 10.3443C56.6207 10.2068 56.6132 10.0631 56.5687 9.92996C56.5241 9.79683 56.4443 9.67983 56.3387 9.59273C56.2331 9.50563 56.1061 9.45204 55.9725 9.43826H55.9755Z" fill="#FF9F0D"/>
<path d="M87.956 9.43826L80.5793 8.31183L77.274 1.26122C77.202 1.14054 77.1021 1.04105 76.9836 0.972088C76.8651 0.903123 76.7319 0.866943 76.5964 0.866943C76.461 0.866943 76.3278 0.903123 76.2092 0.972088C76.0907 1.04105 75.9908 1.14054 75.9189 1.26122L72.6136 8.32146L65.2399 9.43826C65.1063 9.45204 64.9793 9.50563 64.8737 9.59273C64.7681 9.67983 64.6883 9.79683 64.6437 9.92996C64.5992 10.0631 64.5917 10.2068 64.6222 10.3443C64.6526 10.4817 64.7198 10.6072 64.8157 10.7059L70.172 16.2097L68.9054 23.9823C68.8892 24.1256 68.9109 24.2708 68.9682 24.4019C69.0256 24.533 69.1162 24.6449 69.2302 24.7253C69.3442 24.8056 69.4771 24.8513 69.6142 24.8572C69.7513 24.8632 69.8873 24.8292 70.0072 24.759L76.5964 21.1133L83.1827 24.7622C83.3026 24.8324 83.4386 24.8664 83.5757 24.8604C83.7128 24.8545 83.8456 24.8088 83.9596 24.7285C84.0736 24.6481 84.1643 24.5362 84.2216 24.4051C84.2789 24.274 84.3006 24.1288 84.2844 23.9855L83.0209 16.2097L88.3772 10.7059C88.4731 10.6072 88.5403 10.4817 88.5707 10.3443C88.6012 10.2068 88.5937 10.0631 88.5491 9.92996C88.5046 9.79683 88.4248 9.67983 88.3192 9.59273C88.2136 9.50563 88.0865 9.45204 87.953 9.43826H87.956Z" fill="#FF9F0D"/>
<path d="M119.936 9.43826L112.56 8.31183L109.254 1.26122C109.182 1.14054 109.083 1.04105 108.964 0.972088C108.846 0.903123 108.712 0.866943 108.577 0.866943C108.441 0.866943 108.308 0.903123 108.19 0.972088C108.071 1.04105 107.971 1.14054 107.899 1.26122L104.594 8.32146L97.2204 9.43826C97.0868 9.45204 96.9597 9.50563 96.8541 9.59273C96.7485 9.67983 96.6688 9.79683 96.6242 9.92996C96.5796 10.0631 96.5722 10.2068 96.6026 10.3443C96.6331 10.4817 96.7002 10.6072 96.7962 10.7059L102.152 16.2097L100.886 23.9823C100.87 24.1256 100.891 24.2708 100.949 24.4019C101.006 24.533 101.097 24.6449 101.211 24.7253C101.325 24.8056 101.458 24.8513 101.595 24.8572C101.732 24.8632 101.868 24.8292 101.988 24.759L108.577 21.1133L115.163 24.7622C115.283 24.8324 115.419 24.8664 115.556 24.8604C115.693 24.8545 115.826 24.8088 115.94 24.7285C116.054 24.6481 116.145 24.5362 116.202 24.4051C116.259 24.274 116.281 24.1288 116.265 23.9855L115.001 16.2097L120.358 10.7059C120.454 10.6072 120.521 10.4817 120.551 10.3443C120.582 10.2068 120.574 10.0631 120.53 9.92996C120.485 9.79683 120.405 9.67983 120.3 9.59273C120.194 9.50563 120.067 9.45204 119.933 9.43826H119.936Z" fill="#FF9F0D"/>
<path d="M151.917 9.43826L144.54 8.31183L141.235 1.26122C141.163 1.14054 141.063 1.04105 140.945 0.972088C140.826 0.903123 140.693 0.866943 140.557 0.866943C140.422 0.866943 140.289 0.903123 140.17 0.972088C140.052 1.04105 139.952 1.14054 139.88 1.26122L136.575 8.32146L129.201 9.43826C129.067 9.45204 128.94 9.50563 128.835 9.59273C128.729 9.67983 128.649 9.79683 128.605 9.92996C128.56 10.0631 128.553 10.2068 128.583 10.3443C128.614 10.4817 128.681 10.6072 128.777 10.7059L134.133 16.2097L132.866 23.9823C132.85 24.1256 132.872 24.2708 132.929 24.4019C132.986 24.533 133.077 24.6449 133.191 24.7253C133.305 24.8056 133.438 24.8513 133.575 24.8572C133.712 24.8632 133.848 24.8292 133.968 24.759L140.557 21.1133L147.144 24.7622C147.263 24.8324 147.399 24.8664 147.537 24.8604C147.674 24.8545 147.807 24.8088 147.921 24.7285C148.035 24.6481 148.125 24.5362 148.183 24.4051C148.24 24.274 148.262 24.1288 148.245 23.9855L146.982 16.2097L152.338 10.7059C152.434 10.6072 152.501 10.4817 152.532 10.3443C152.562 10.2068 152.555 10.0631 152.51 9.92996C152.466 9.79683 152.386 9.67983 152.28 9.59273C152.175 9.50563 152.047 9.45204 151.914 9.43826H151.917Z" fill="#E0E0E0"/>
</svg>
